# Blender v2.79 (sub 0) OBJ File: 'blade.blend'
# www.blender.org
mtllib blade.mtl
o Cube_Cube.001
v 0.015102 -0.098540 1.000000
v 0.015102 5.724736 1.000000
v -0.301281 -0.098540 -1.000000
v -0.301281 5.724736 -1.000000
v 0.048856 -0.098540 1.000000
v 0.048856 5.724736 1.000000
v 0.301281 -0.098540 -1.000000
v 0.301281 5.724736 -1.000000
v 0.015538 6.089973 0.508647
v -0.145389 6.089973 -0.508647
v 0.161102 6.089973 -0.508647
v 0.032707 6.089973 0.508647
v 0.015990 6.307006 0.000000
v 0.143370 -0.098540 -0.446493
v 0.015593 -0.098540 0.446493
v -0.125669 -0.098540 -0.446493
v 0.030664 -0.098540 0.446493
v 0.015784 -0.334220 0.231244
v 0.023590 -0.334220 0.231244
v 0.081961 -0.334220 -0.231244
v -0.057377 -0.334220 -0.231244
v 0.015784 -2.041037 0.231244
v 0.023590 -2.041037 0.231244
v 0.081961 -2.041037 -0.231244
v -0.057377 -2.041037 -0.231244
v 0.015784 -2.041037 0.231244
v 0.023590 -2.041037 0.231244
v 0.081961 -2.041037 -0.231244
v -0.057377 -2.041037 -0.231244
v 0.015784 -2.041037 0.231244
v 0.023590 -2.041037 0.231244
v 0.081961 -2.041037 -0.231244
v -0.057377 -2.041037 -0.231244
v 0.015784 -2.041037 0.231244
v 0.023590 -2.041037 0.231244
v 0.081961 -2.041037 -0.231244
v -0.057377 -2.041037 -0.231244
v 0.015642 -2.139778 0.391859
v 0.028869 -2.139778 0.391859
v 0.127783 -2.139778 -0.391859
v -0.108336 -2.139778 -0.391859
v 0.015642 -2.139778 0.391859
v 0.028869 -2.139778 0.391859
v 0.127783 -2.139778 -0.391859
v -0.108336 -2.139778 -0.391859
v 0.015828 -2.421789 0.182426
v 0.021985 -2.421789 0.182426
v 0.068034 -2.421789 -0.182426
v -0.041889 -2.421789 -0.182426
vn -0.9877 0.0000 0.1562
vn 0.0000 0.0000 -1.0000
vn 0.9921 0.0000 0.1252
vn 0.0000 0.0000 1.0000
vn 0.0000 -1.0000 0.0000
vn -0.9664 0.2068 0.1529
vn 0.0000 0.9198 0.3925
vn 0.0000 0.8026 0.5966
vn 0.0000 0.8026 -0.5966
vn 0.9705 0.2077 0.1225
vn 0.0000 0.9198 -0.3925
vn 0.9305 0.3469 0.1174
vn -0.9269 0.3456 0.1466
vn 0.9820 -0.1427 0.1239
vn 0.0000 -0.6744 0.7384
vn 0.0000 -0.6744 -0.7384
vn -0.9777 -0.1420 0.1547
vn 0.0000 0.8519 -0.5237
vn 0.0000 0.8519 0.5237
vn -0.9570 0.2476 0.1514
vn 0.9610 0.2487 0.1213
vn 0.9854 -0.1164 0.1244
vn 0.0000 -0.5962 -0.8028
vn 0.0000 -0.5962 0.8028
vn -0.9811 -0.1159 0.1552
usemtl None
s off
f 1//1 2//1 4//1 3//1
f 3//2 4//2 8//2 7//2
f 7//3 8//3 6//3 5//3
f 5//4 6//4 2//4 1//4
f 3//5 7//5 14//5 16//5
f 4//6 2//6 9//6 10//6
f 9//7 12//7 13//7
f 2//8 6//8 12//8 9//8
f 8//9 4//9 10//9 11//9
f 6//10 8//10 11//10 12//10
f 1//5 3//5 16//5 15//5
f 11//11 10//11 13//11
f 12//12 11//12 13//12
f 10//13 9//13 13//13
f 14//14 17//14 19//14 20//14
f 7//5 5//5 17//5 14//5
f 5//5 1//5 15//5 17//5
f 18//1 21//1 25//1 22//1
f 17//15 15//15 18//15 19//15
f 16//16 14//16 20//16 21//16
f 15//17 16//17 21//17 18//17
f 25//4 24//4 28//4 29//4
f 20//3 19//3 23//3 24//3
f 21//2 20//2 24//2 25//2
f 19//4 18//4 22//4 23//4
f 27//4 26//4 30//4 31//4
f 23//4 22//4 26//4 27//4
f 22//4 25//4 29//4 26//4
f 24//4 23//4 27//4 28//4
f 30//4 33//4 37//4 34//4
f 26//4 29//4 33//4 30//4
f 28//4 27//4 31//4 32//4
f 29//4 28//4 32//4 33//4
f 37//18 36//18 40//18 41//18
f 32//4 31//4 35//4 36//4
f 33//4 32//4 36//4 37//4
f 31//4 30//4 34//4 35//4
f 38//4 41//4 45//4 42//4
f 35//19 34//19 38//19 39//19
f 34//20 37//20 41//20 38//20
f 36//21 35//21 39//21 40//21
f 44//22 43//22 47//22 48//22
f 40//4 39//4 43//4 44//4
f 41//4 40//4 44//4 45//4
f 39//4 38//4 42//4 43//4
f 49//5 48//5 47//5 46//5
f 45//23 44//23 48//23 49//23
f 43//24 42//24 46//24 47//24
f 42//25 45//25 49//25 46//25
